<svg xmlns="http://www.w3.org/2000/svg" viewBox="0 0 100 54.844"><path fill="navy" d="M0 0v29.62h40.046V0H0zm33.136 3.964l.46 1.421h1.496l-1.21.878.462 1.423-1.208-.879-1.21.879.462-1.423-1.209-.878h1.495l.462-1.421zm1.208 9.504l-1.208-.879-1.21.879.462-1.421-1.209-.879h1.495l.462-1.422.46 1.422h1.496l-1.21.879.462 1.421zm0 5.747l-1.208-.879-1.21.879.462-1.422-1.209-.877h1.495l.462-1.423.46 1.423h1.496l-1.21.877.462 1.422zM31.1 22.001l-1.209-.878-1.209.878.461-1.421-1.208-.879h1.494l.462-1.422.462 1.422h1.495l-1.209.879.461 1.421zm-3.385-2.786l-1.209-.879-1.209.879.462-1.422-1.21-.877h1.495l.462-1.423.462 1.423h1.495l-1.209.877.461 1.422zm-3.314 2.786l-1.209-.878-1.21.878.462-1.421-1.209-.879h1.495l.462-1.422.461 1.422h1.495l-1.209.879.462 1.421zm-3.421-2.786l-1.209-.879-1.209.879.462-1.422-1.21-.877h1.495l.462-1.423.462 1.423h1.496l-1.21.877.461 1.422zm-3.278 2.786l-1.21-.878-1.209.878.462-1.421-1.21-.879h1.496l.461-1.422.462 1.422h1.495l-1.209.879.462 1.421zm-3.314-2.786l-1.21-.879-1.21.879.462-1.422-1.209-.877h1.496l.461-1.423.462 1.423h1.495l-1.209.877.462 1.422zm-3.387 2.786l-1.209-.878-1.209.878.461-1.421-1.209-.879H9.33l.462-1.422.462 1.422h1.495l-1.209.879.461 1.421zm-3.313-2.786l-1.209-.879-1.21.879.462-1.422-1.21-.877h1.496l.462-1.423.462 1.423h1.495l-1.21.877.462 1.422zM4.52 11.167h1.496l.462-1.422.462 1.422h1.495l-1.21.879.462 1.421-1.209-.879-1.21.879.462-1.421-1.21-.879zm26.58-.621l-1.209-.878-1.209.878.461-1.422-1.208-.879h1.494l.462-1.42.462 1.42h1.495l-1.209.879.461 1.422zm0 5.688l-1.209-.879-1.209.879.461-1.423-1.208-.878h1.494l.462-1.421.462 1.421h1.495l-1.209.878.461 1.423zm-2.637-5.067l-1.209.879.461 1.421-1.209-.879-1.209.879.462-1.421-1.21-.879h1.495l.462-1.422.462 1.422h1.495zm-4.062 5.067l-1.209-.879-1.21.879.462-1.423-1.209-.878h1.495l.462-1.421.461 1.421h1.495l-1.209.878.462 1.423zm-.463-7.11l.462 1.422-1.209-.878-1.21.878.462-1.422-1.209-.879h1.495l.462-1.42.461 1.42h1.495l-1.209.879zm-2.209 2.043l-1.21.879.461 1.421-1.209-.879-1.209.879.462-1.421-1.21-.879h1.495l.462-1.422.462 1.422h1.496zm-4.027 5.067l-1.21-.879-1.209.879.462-1.423-1.21-.878h1.496l.461-1.421.462 1.421h1.495l-1.209.878.462 1.423zm-.463-7.11l.462 1.422-1.21-.878-1.209.878.462-1.422-1.21-.879h1.496l.461-1.42.462 1.42h1.495l-1.209.879zm-2.105 2.043l-1.209.879.462 1.421-1.21-.879-1.21.879.462-1.421-1.209-.879h1.496l.461-1.422.462 1.422h1.495zm-4.133 5.067l-1.209-.879-1.209.879.461-1.423-1.209-.878H9.33l.462-1.421.462 1.421h1.495l-1.209.878.461 1.423zm-.461-6.938l.461 1.421-1.209-.878-1.209.879.461-1.421-1.209-.88H9.33l.462-1.422.462 1.422h1.495l-1.209.879zm18.889-6.838l.462-1.422.462 1.422h1.495l-1.209.878.461 1.422-1.209-.878-1.209.878.461-1.421-1.208-.878h1.494zm-2.923 1.506l.462 1.421h1.495l-1.209.878.461 1.423-1.209-.879-1.209.879.462-1.423-1.21-.878h1.495l.462-1.421zm-3.777-1.506l.462-1.422.461 1.422h1.495l-1.209.878.462 1.421-1.208-.877-1.21.878.462-1.421-1.209-.878h1.494zm-2.958 1.506l.462 1.421h1.496l-1.21.878.461 1.423-1.209-.879-1.209.879.462-1.423-1.21-.878h1.495l.462-1.421zM16.03 2.458l.461-1.422.462 1.422h1.495l-1.209.878.462 1.421-1.21-.878-1.209.878.462-1.421-1.21-.878h1.496zm-2.853 1.506l.462 1.421h1.495l-1.209.878.462 1.423-1.21-.879-1.21.879.462-1.423-1.209-.878h1.496l.461-1.421zM9.33 2.458l.462-1.422.462 1.422h1.495l-1.209.879.461 1.421-1.209-.878-1.209.878.461-1.421-1.209-.879H9.33zM6.478 3.964l.462 1.421h1.495l-1.21.878.462 1.423-1.209-.879-1.21.879.462-1.423-1.21-.878h1.496l.462-1.421zM2.736 2.458l.461-1.422.463 1.422h1.496l-1.21.878.462 1.421-1.21-.877-1.209.878.462-1.421-1.209-.879h1.494zm0 5.787l.461-1.42.462 1.42h1.496l-1.21.879.462 1.422-1.21-.878-1.209.878.462-1.422-1.208-.879h1.494zm0 5.689l.461-1.421.462 1.421h1.496l-1.21.878.462 1.423-1.21-.879-1.209.879.462-1.423-1.209-.878h1.495zm0 5.767l.461-1.422.462 1.422h1.496l-1.21.879.462 1.421-1.21-.878-1.209.878.462-1.421-1.209-.879h1.495zm1.672 8.084l-1.21-.879-1.209.879.462-1.423-1.209-.878h1.495l.461-1.421.462 1.421h1.496l-1.21.878.462 1.423zm2.07-3.811l-1.21.879.462-1.423-1.21-.878h1.496l.462-1.421.462 1.421h1.495l-1.21.878.462 1.423-1.209-.879zm4.523 3.811l-1.209-.879-1.209.879.461-1.423-1.209-.878H9.33l.462-1.421.462 1.421h1.495l-1.209.878.461 1.423zm2.176-3.811l-1.21.879.462-1.423-1.209-.878h1.496l.461-1.421.462 1.421h1.495l-1.209.878.462 1.423-1.21-.879zm4.525 3.811l-1.21-.879-1.209.879.462-1.423-1.21-.878h1.496l.461-1.421.462 1.421h1.495l-1.209.878.462 1.423zm2.069-3.917l-1.209.879.462-1.421-1.21-.879h1.495l.462-1.422.462 1.422h1.496l-1.21.879.461 1.421-1.209-.879zm4.63 4.022l-1.209-.878-1.21.878.462-1.422-1.209-.879h1.495l.462-1.42.461 1.42h1.495l-1.209.879.462 1.422zm2.105-3.916l-1.209.879.462-1.423-1.21-.878h1.495l.462-1.421.462 1.421h1.495l-1.209.878.461 1.423-1.209-.879zm4.594 3.811l-1.209-.879-1.209.879.461-1.423-1.208-.878h1.494l.462-1.421.462 1.421h1.495l-1.209.878.461 1.423zm2.036-3.811l-1.21.879.462-1.423-1.209-.878h1.495l.462-1.421.46 1.421h1.496l-1.21.878.462 1.423-1.208-.879zm4.524 3.811l-1.21-.879-1.21.879.462-1.423-1.209-.878h1.496l.461-1.421.462 1.421h1.495l-1.209.878.462 1.423zm-.462-7.205l.462 1.421-1.21-.878-1.21.878.462-1.421-1.209-.879h1.496l.461-1.422.462 1.422h1.495l-1.209.879zm0-5.768l.462 1.423-1.21-.879-1.21.879.462-1.423-1.209-.878h1.496l.461-1.421.462 1.421h1.495l-1.209.878zm0-5.688l.462 1.422-1.21-.878-1.21.878.462-1.422-1.209-.879h1.496l.461-1.42.462 1.42h1.495l-1.209.879zm0-5.787l.462 1.421-1.21-.878-1.21.878.462-1.421-1.209-.878h1.496l.461-1.422.462 1.422h1.495l-1.209.878z"/><path fill="#BF0A30" d="M0 50.613h99.965v4.231H0zm0-8.397h99.965v4.231H0zm0-8.397h99.965v4.231H0zm40.071-8.431H100v4.232H40.071zm-.007-8.593h59.928v4.231H40.064zm0-8.398h59.928v4.231H40.064zm0-8.397h59.928v4.231H40.064z"/></svg>